<svg width="60" height="60" viewBox="0 0 60 60" fill="none" xmlns="http://www.w3.org/2000/svg">
<path fill-rule="evenodd" clip-rule="evenodd" d="M30 10C39.1 10 46.675 16.475 48.375 25.1C54.875 25.55 60 30.9 60 37.5C60 44.4 54.4 50 47.5 50H15C6.725 50 0 43.275 0 35C0 27.275 5.85 20.9 13.375 20.1C16.5 14.1 22.775 10 30 10ZM15 45H47.5C51.65 45 55 41.65 55 37.5C55 33.35 51.65 30 47.5 30H43.75V28.75C43.75 21.15 37.6 15 30 15C23.7 15 18.425 19.225 16.775 25H15C9.475 25 5 29.475 5 35C5 40.525 9.475 45 15 45Z" fill="#0A1683"/>
</svg>
