<svg width="60" height="60" viewBox="0 0 60 60" fill="none" xmlns="http://www.w3.org/2000/svg">
<path fill-rule="evenodd" clip-rule="evenodd" d="M7.5 28.75C7.5 16.325 17.575 6.25 30 6.25C42.425 6.25 52.5 16.325 52.5 28.75V46.25C52.5 50.4 49.15 53.75 45 53.75H37.5V33.75H47.5V28.75C47.5 19.075 39.675 11.25 30 11.25C20.325 11.25 12.5 19.075 12.5 28.75V33.75H22.5V53.75H15C10.85 53.75 7.5 50.4 7.5 46.25V28.75ZM17.5 38.75V48.75H15C13.625 48.75 12.5 47.625 12.5 46.25V38.75H17.5ZM47.5 38.75V46.25C47.5 47.625 46.375 48.75 45 48.75H42.5V38.75H47.5Z" fill="#8915B2"/>
</svg>
