<svg width="142" height="34" viewBox="0 0 142 34" fill="none" xmlns="http://www.w3.org/2000/svg">
<path d="M24.3394 25.1324C24.3394 26.3577 24.0963 27.491 23.6102 28.5324C23.124 29.5432 22.4707 30.4315 21.6502 31.1973C20.8298 31.9324 19.8727 32.5144 18.7787 32.9432C17.6848 33.3414 16.515 33.5405 15.2691 33.5405H0V0.918918H15.5882C16.7125 0.918918 17.7304 1.16396 18.642 1.65405C19.5536 2.14414 20.3284 2.78739 20.9666 3.58378C21.6047 4.34955 22.0909 5.23784 22.4251 6.24865C22.7897 7.22883 22.9721 8.22432 22.9721 9.23513C22.9721 10.8892 22.5618 12.4054 21.7414 13.7838C20.921 15.1315 19.7815 16.1423 18.3229 16.8162C20.1765 17.3676 21.6351 18.3937 22.6986 19.8946C23.7925 21.3955 24.3394 23.1414 24.3394 25.1324ZM21.1489 24.5811C21.1489 23.7847 21.0121 23.0189 20.7387 22.2838C20.4652 21.518 20.0702 20.8595 19.5536 20.3081C19.0674 19.7261 18.4749 19.2667 17.776 18.9297C17.1075 18.5622 16.3782 18.3784 15.5882 18.3784H3.19056V30.7378H15.2691C16.0896 30.7378 16.8492 30.5694 17.5481 30.2324C18.2774 29.8955 18.9003 29.4514 19.4169 28.9C19.9638 28.318 20.3892 27.6595 20.6931 26.9243C20.9969 26.1586 21.1489 25.3775 21.1489 24.5811ZM3.19056 3.72162V15.7595H14.312C15.102 15.7595 15.8313 15.591 16.4998 15.2541C17.1987 14.9171 17.7912 14.473 18.2774 13.9216C18.7636 13.3703 19.1434 12.7423 19.4169 12.0378C19.6903 11.3027 19.8271 10.5369 19.8271 9.74054C19.8271 8.91351 19.6903 8.13243 19.4169 7.3973C19.1738 6.66216 18.8091 6.03423 18.3229 5.51351C17.8672 4.96216 17.3202 4.53333 16.6821 4.22703C16.044 3.89009 15.3451 3.72162 14.5854 3.72162H3.19056Z" fill="white"/>
<path d="M40.0651 34C38.2723 34 36.6314 33.6784 35.1425 33.0351C33.6536 32.3613 32.3773 31.4577 31.3138 30.3243C30.2503 29.191 29.4147 27.8739 28.8069 26.373C28.2296 24.8414 27.9409 23.2333 27.9409 21.5486C27.9409 19.864 28.2296 18.2712 28.8069 16.7703C29.4147 15.2694 30.2503 13.9523 31.3138 12.8189C32.4077 11.6856 33.6991 10.7973 35.1881 10.1541C36.677 9.48018 38.3179 9.14324 40.1106 9.14324C41.9034 9.14324 43.5291 9.48018 44.9877 10.1541C46.4766 10.8279 47.7376 11.7315 48.7707 12.8649C49.8039 13.9676 50.5939 15.2694 51.1409 16.7703C51.7182 18.2405 52.0069 19.7721 52.0069 21.3649C52.0069 21.7018 51.9917 22.0081 51.9613 22.2838C51.9613 22.5595 51.9461 22.7739 51.9157 22.927H32.1798C32.271 24.1216 32.5445 25.209 33.0003 26.1892C33.456 27.1694 34.0486 28.0117 34.7778 28.7162C35.5071 29.4207 36.3276 29.9721 37.2391 30.3703C38.1811 30.7685 39.1687 30.9676 40.2018 30.9676C40.9311 30.9676 41.6452 30.8757 42.344 30.6919C43.0429 30.4775 43.6962 30.2018 44.304 29.8649C44.9117 29.5279 45.4435 29.1144 45.8992 28.6243C46.3854 28.1342 46.7501 27.5829 46.9931 26.9703L50.4572 27.9351C50.0622 28.8234 49.5152 29.6351 48.8163 30.3703C48.1478 31.1054 47.3578 31.7486 46.4462 32.3C45.565 32.8207 44.5774 33.2342 43.4835 33.5405C42.3896 33.8468 41.2501 34 40.0651 34ZM48.2238 19.9405C48.1326 18.8072 47.844 17.7658 47.3578 16.8162C46.902 15.836 46.3095 15.009 45.5802 14.3351C44.8813 13.6613 44.0609 13.1405 43.1189 12.773C42.1769 12.3748 41.1742 12.1757 40.1106 12.1757C39.0471 12.1757 38.0444 12.3748 37.1024 12.773C36.1604 13.1405 35.3248 13.6766 34.5955 14.3811C33.8966 15.055 33.3193 15.8667 32.8635 16.8162C32.4381 17.7658 32.1798 18.8072 32.0887 19.9405H48.2238Z" fill="white"/>
<path d="M62.5731 34C61.4185 34 60.3397 33.8162 59.337 33.4487C58.3646 33.0505 57.5138 32.5144 56.7845 31.8405C56.0857 31.1667 55.5235 30.3703 55.0981 29.4514C54.7031 28.5324 54.5056 27.5369 54.5056 26.4649C54.5056 25.3315 54.7487 24.3054 55.2348 23.3865C55.721 22.4676 56.4047 21.6712 57.2859 20.9973C58.1975 20.3234 59.261 19.8027 60.4765 19.4351C61.7223 19.0676 63.0897 18.8838 64.5786 18.8838C65.7029 18.8838 66.812 18.991 67.9059 19.2054C68.9998 19.3892 69.9874 19.6495 70.8686 19.9865V18.3324C70.8686 16.5559 70.3672 15.1775 69.3645 14.1973C68.3617 13.1865 66.9184 12.6811 65.0344 12.6811C63.7582 12.6811 62.4972 12.9261 61.2513 13.4162C60.0359 13.8757 58.7748 14.5495 57.4682 15.4378L55.9185 12.2216C58.9876 10.1387 62.1781 9.0973 65.4902 9.0973C68.7719 9.0973 71.3244 9.93964 73.1476 11.6243C74.9708 13.309 75.8823 15.7288 75.8823 18.8838V27.5676C75.8823 28.6396 76.3229 29.191 77.2041 29.2216V33.5405C76.718 33.6324 76.2926 33.6937 75.9279 33.7243C75.5937 33.755 75.2594 33.7703 74.9252 33.7703C73.9528 33.7703 73.1932 33.5252 72.6462 33.0351C72.1296 32.545 71.8106 31.9171 71.689 31.1514L71.5523 29.6351C70.4888 31.0441 69.167 32.1315 67.5869 32.8973C66.0372 33.6324 64.3659 34 62.5731 34ZM63.9405 30.2784C65.156 30.2784 66.2955 30.064 67.359 29.6351C68.4529 29.1757 69.3037 28.5477 69.9114 27.7514C70.5495 27.2 70.8686 26.618 70.8686 26.0054V22.8351C70.0178 22.4982 69.1062 22.2378 68.1338 22.0541C67.1919 21.8703 66.2651 21.7784 65.3535 21.7784C63.5607 21.7784 62.087 22.1766 60.9323 22.973C59.808 23.7387 59.2458 24.7649 59.2458 26.0514C59.2458 27.2459 59.6864 28.2568 60.5676 29.0838C61.4488 29.8802 62.5731 30.2784 63.9405 30.2784Z" fill="white"/>
<path d="M96.0491 32.3C95.2287 32.6676 94.2259 33.0351 93.0409 33.4027C91.8558 33.7703 90.61 33.9541 89.3034 33.9541C88.4525 33.9541 87.6473 33.8468 86.8876 33.6324C86.1584 33.418 85.5051 33.0811 84.9277 32.6216C84.3808 32.1315 83.9402 31.5189 83.6059 30.7838C83.2717 30.018 83.1046 29.0991 83.1046 28.027V14.1973H79.9596V9.46486H83.1046V1.65405H89.2122V9.46486H94.2259V14.1973H89.2122V25.9595C89.2122 26.8171 89.4249 27.4297 89.8503 27.7973C90.3061 28.1342 90.8531 28.3027 91.4912 28.3027C92.1293 28.3027 92.7522 28.1955 93.3599 27.9811C93.9677 27.7667 94.4538 27.5829 94.8185 27.4297L96.0491 32.3Z" fill="white"/>
<path d="M99.2301 33.5405V27.6595H103.378V33.5405H99.2301Z" fill="white"/>
<path d="M109.389 33.5405V9.55676H113.4V33.5405H109.389ZM109.389 5.05405V0H113.4V5.05405H109.389Z" fill="white"/>
<path d="M130.195 34C128.463 34 126.883 33.6784 125.455 33.0351C124.026 32.3613 122.781 31.4577 121.717 30.3243C120.684 29.191 119.879 27.8739 119.301 26.373C118.724 24.8721 118.435 23.2946 118.435 21.6405C118.435 19.9559 118.724 18.3631 119.301 16.8622C119.909 15.3613 120.73 14.0441 121.763 12.9108C122.826 11.7775 124.072 10.8739 125.5 10.2C126.928 9.52613 128.493 9.18919 130.195 9.18919C131.897 9.18919 133.461 9.52613 134.89 10.2C136.348 10.8739 137.594 11.7775 138.627 12.9108C139.691 14.0441 140.511 15.3613 141.088 16.8622C141.696 18.3631 142 19.9559 142 21.6405C142 23.2946 141.711 24.8721 141.134 26.373C140.557 27.8739 139.736 29.191 138.673 30.3243C137.64 31.4577 136.394 32.3613 134.935 33.0351C133.507 33.6784 131.927 34 130.195 34ZM121.58 21.6865C121.58 23.0342 121.808 24.2901 122.264 25.4541C122.72 26.5874 123.328 27.5982 124.087 28.4865C124.877 29.3441 125.789 30.018 126.822 30.5081C127.886 30.9982 129.01 31.2432 130.195 31.2432C131.38 31.2432 132.489 30.9982 133.522 30.5081C134.586 29.9874 135.513 29.2982 136.303 28.4405C137.093 27.5523 137.716 26.5261 138.171 25.3622C138.627 24.1982 138.855 22.9423 138.855 21.5946C138.855 20.2775 138.627 19.0369 138.171 17.873C137.716 16.6784 137.093 15.6523 136.303 14.7946C135.513 13.9063 134.586 13.2171 133.522 12.727C132.489 12.2063 131.38 11.9459 130.195 11.9459C129.01 11.9459 127.901 12.2063 126.868 12.727C125.834 13.2171 124.923 13.9063 124.133 14.7946C123.343 15.6829 122.72 16.7243 122.264 17.9189C121.808 19.0829 121.58 20.3387 121.58 21.6865Z" fill="white"/>
</svg>
